<svg width="8" height="14" viewBox="0 0 8 14" fill="none" xmlns="http://www.w3.org/2000/svg">
<mask id="path-1-inside-1_68_119" fill="white">
<path d="M7.61795 6.38204C7.95974 6.72383 7.95974 7.27891 7.61795 7.62071L2.36794 12.8707C2.02615 13.2125 1.47107 13.2125 1.12927 12.8707C0.787476 12.5289 0.787476 11.9738 1.12927 11.632L5.7613 7.00001L1.13201 2.36797C0.79021 2.02618 0.79021 1.4711 1.13201 1.1293C1.4738 0.787506 2.02888 0.787506 2.37068 1.1293L7.62068 6.3793L7.61795 6.38204Z"/>
</mask>
<path d="M7.61795 6.38204C7.95974 6.72383 7.95974 7.27891 7.61795 7.62071L2.36794 12.8707C2.02615 13.2125 1.47107 13.2125 1.12927 12.8707C0.787476 12.5289 0.787476 11.9738 1.12927 11.632L5.7613 7.00001L1.13201 2.36797C0.79021 2.02618 0.79021 1.4711 1.13201 1.1293C1.4738 0.787506 2.02888 0.787506 2.37068 1.1293L7.62068 6.3793L7.61795 6.38204Z" fill="#012E5F"/>
<path d="M7.61795 6.38204L1.25509 0.0169668L-5.11109 6.38093L1.25398 12.746L7.61795 6.38204ZM7.61795 7.62071L13.9819 13.9847L7.61795 7.62071ZM2.36794 12.8707L-3.99602 6.50675L2.36794 12.8707ZM1.12927 11.632L7.49323 17.996L7.49323 17.996L1.12927 11.632ZM5.7613 7.00001L12.1253 13.364L18.4873 7.00188L12.1271 0.637925L5.7613 7.00001ZM1.13201 2.36797L7.49785 -3.99411L7.49597 -3.99599L1.13201 2.36797ZM2.37068 1.1293L-3.99328 7.49326L-3.99328 7.49326L2.37068 1.1293ZM7.62068 6.3793L13.9835 12.7444L20.3497 6.38041L13.9846 0.0153426L7.62068 6.3793ZM1.25398 12.746C-1.91894 9.57308 -1.91894 4.42967 1.25398 1.25675L13.9819 13.9847C17.8384 10.1282 17.8384 3.87459 13.9819 0.0180766L1.25398 12.746ZM1.25398 1.25675L-3.99602 6.50675L8.73191 19.2347L13.9819 13.9847L1.25398 1.25675ZM-3.99602 6.50675C-0.823095 3.33383 4.32031 3.33383 7.49323 6.50675L-5.23469 19.2347C-1.37817 23.0912 4.87539 23.0912 8.73191 19.2347L-3.99602 6.50675ZM7.49323 6.50675C10.6662 9.67967 10.6662 14.8231 7.49323 17.996L-5.23469 5.26808C-9.0912 9.12459 -9.0912 15.3782 -5.23469 19.2347L7.49323 6.50675ZM7.49323 17.996L12.1253 13.364L-0.602657 0.636046L-5.23469 5.26808L7.49323 17.996ZM12.1271 0.637925L7.49785 -3.99411L-5.23383 8.73006L-0.604535 13.3621L12.1271 0.637925ZM7.49597 -3.99599C10.6689 -0.823064 10.6689 4.32034 7.49597 7.49326L-5.23195 -5.23466C-9.08847 -1.37814 -9.08847 4.87542 -5.23195 8.73194L7.49597 -3.99599ZM7.49597 7.49326C4.32305 10.6662 -0.82036 10.6662 -3.99328 7.49326L8.73464 -5.23466C4.87812 -9.09117 -1.37544 -9.09117 -5.23195 -5.23466L7.49597 7.49326ZM-3.99328 7.49326L1.25672 12.7433L13.9846 0.0153426L8.73464 -5.23466L-3.99328 7.49326ZM1.25783 0.0142331L1.25509 0.0169668L13.9808 12.7471L13.9835 12.7444L1.25783 0.0142331Z" fill="#012E5F" mask="url(#path-1-inside-1_68_119)"/>
</svg>
