<svg width="20" height="20" viewBox="0 0 20 20" fill="none" xmlns="http://www.w3.org/2000/svg">
<path d="M2.5 4.375C2.15625 4.375 1.875 4.65625 1.875 5V5.86328L8.61328 11.3945C9.42188 12.0586 10.582 12.0586 11.3906 11.3945L18.125 5.86328V5C18.125 4.65625 17.8438 4.375 17.5 4.375H2.5ZM1.875 8.28906V15C1.875 15.3438 2.15625 15.625 2.5 15.625H17.5C17.8438 15.625 18.125 15.3438 18.125 15V8.28906L12.5781 12.8438C11.0781 14.0742 8.91797 14.0742 7.42188 12.8438L1.875 8.28906ZM0 5C0 3.62109 1.12109 2.5 2.5 2.5H17.5C18.8789 2.5 20 3.62109 20 5V15C20 16.3789 18.8789 17.5 17.5 17.5H2.5C1.12109 17.5 0 16.3789 0 15V5Z" fill="#E7B245"/>
</svg>
