<svg width="18" height="18" fill="none" xmlns="http://www.w3.org/2000/svg"><g clip-path="url(#a)"><path d="M9 18A9 9 0 1 0 9 0a9 9 0 0 0 0 18zm-1.406-6.188h.843v-2.25h-.843a.842.842 0 0 1-.844-.843c0-.468.376-.844.844-.844H9.28c.468 0 .844.376.844.844v3.094h.281c.468 0 .844.376.844.843a.842.842 0 0 1-.844.844H7.594a.842.842 0 0 1-.844-.844c0-.467.376-.844.844-.844zM9 4.5a1.125 1.125 0 1 1 0 2.25A1.125 1.125 0 0 1 9 4.5z" fill="#012E5F"/></g><defs><clipPath id="a"><path fill="#fff" d="M0 0h18v18H0z"/></clipPath></defs></svg>