<svg width="18" height="21" fill="none" xmlns="http://www.w3.org/2000/svg"><g clip-path="url(#a)"><path d="M0 3.857c0-.711.575-1.286 1.286-1.286h15.428c.711 0 1.286.575 1.286 1.286 0 .711-.575 1.286-1.286 1.286H1.286A1.284 1.284 0 0 1 0 3.857zm0 6.429C0 9.575.575 9 1.286 9h15.428C17.425 9 18 9.575 18 10.286c0 .71-.575 1.285-1.286 1.285H1.286A1.284 1.284 0 0 1 0 10.286zm18 6.428c0 .712-.575 1.286-1.286 1.286H1.286A1.284 1.284 0 0 1 0 16.714c0-.71.575-1.285 1.286-1.285h15.428c.711 0 1.286.574 1.286 1.285z" fill="#616161"/></g><defs><clipPath id="a"><path fill="#fff" d="M0 0h18v20.571H0z"/></clipPath></defs></svg>