<svg width="14" height="16" viewBox="0 0 14 16" fill="none" xmlns="http://www.w3.org/2000/svg">
<g clip-path="url(#clip0_4_13)">
<path d="M7.00312 4.40626C5.01562 4.40626 3.41249 6.00938 3.41249 7.99688C3.41249 9.98438 5.01562 11.5875 7.00312 11.5875C8.99062 11.5875 10.5937 9.98438 10.5937 7.99688C10.5937 6.00938 8.99062 4.40626 7.00312 4.40626ZM7.00312 10.3313C5.71874 10.3313 4.66874 9.28438 4.66874 7.99688C4.66874 6.70938 5.71562 5.66251 7.00312 5.66251C8.29062 5.66251 9.33749 6.70938 9.33749 7.99688C9.33749 9.28438 8.28749 10.3313 7.00312 10.3313ZM11.5781 4.25938C11.5781 4.72501 11.2031 5.09688 10.7406 5.09688C10.275 5.09688 9.90312 4.72188 9.90312 4.25938C9.90312 3.79688 10.2781 3.42188 10.7406 3.42188C11.2031 3.42188 11.5781 3.79688 11.5781 4.25938ZM13.9562 5.10938C13.9031 3.98751 13.6469 2.99376 12.825 2.17501C12.0062 1.35626 11.0125 1.10001 9.89062 1.04376C8.73437 0.978131 5.26874 0.978131 4.11249 1.04376C2.99374 1.09688 1.99999 1.35313 1.17812 2.17188C0.356244 2.99063 0.103119 3.98438 0.0468689 5.10626C-0.0187561 6.26251 -0.0187561 9.72813 0.0468689 10.8844C0.0999939 12.0063 0.356244 13 1.17812 13.8188C1.99999 14.6375 2.99062 14.8938 4.11249 14.95C5.26874 15.0156 8.73437 15.0156 9.89062 14.95C11.0125 14.8969 12.0062 14.6406 12.825 13.8188C13.6437 13 13.9 12.0063 13.9562 10.8844C14.0219 9.72813 14.0219 6.26563 13.9562 5.10938ZM12.4625 12.125C12.2187 12.7375 11.7469 13.2094 11.1312 13.4563C10.2094 13.8219 8.02187 13.7375 7.00312 13.7375C5.98437 13.7375 3.79374 13.8188 2.87499 13.4563C2.26249 13.2125 1.79062 12.7406 1.54374 12.125C1.17812 11.2031 1.26249 9.01563 1.26249 7.99688C1.26249 6.97813 1.18124 4.78751 1.54374 3.86876C1.78749 3.25626 2.25937 2.78438 2.87499 2.53751C3.79687 2.17188 5.98437 2.25626 7.00312 2.25626C8.02187 2.25626 10.2125 2.17501 11.1312 2.53751C11.7437 2.78126 12.2156 3.25313 12.4625 3.86876C12.8281 4.79063 12.7437 6.97813 12.7437 7.99688C12.7437 9.01563 12.8281 11.2063 12.4625 12.125Z" fill="white"/>
</g>
<defs>
<clipPath id="clip0_4_13">
<rect width="14" height="16" fill="white"/>
</clipPath>
</defs>
</svg>
