<svg width="18" height="21" viewBox="0 0 18 21" fill="none" xmlns="http://www.w3.org/2000/svg">
<g clip-path="url(#clip0_95_89)">
<path d="M0 3.85716C0 3.146 0.574554 2.57144 1.28571 2.57144H16.7143C17.4254 2.57144 18 3.146 18 3.85716C18 4.56832 17.4254 5.14287 16.7143 5.14287H1.28571C0.574554 5.14287 0 4.56832 0 3.85716ZM0 10.2857C0 9.57457 0.574554 9.00001 1.28571 9.00001H16.7143C17.4254 9.00001 18 9.57457 18 10.2857C18 10.9969 17.4254 11.5714 16.7143 11.5714H1.28571C0.574554 11.5714 0 10.9969 0 10.2857ZM18 16.7143C18 17.4255 17.4254 18 16.7143 18H1.28571C0.574554 18 0 17.4255 0 16.7143C0 16.0031 0.574554 15.4286 1.28571 15.4286H16.7143C17.4254 15.4286 18 16.0031 18 16.7143Z" fill="#616161"/>
</g>
<defs>
<clipPath id="clip0_95_89">
<rect width="18" height="20.5714" fill="white"/>
</clipPath>
</defs>
</svg>
