<svg width="23" height="20" viewBox="0 0 23 20" fill="none" xmlns="http://www.w3.org/2000/svg">
<g clip-path="url(#clip0_51_220)">
<path d="M22.0938 1.41407C22.3477 1.58985 22.5 1.87891 22.5 2.18751V15.3125C22.5 15.7031 22.2578 16.0508 21.8945 16.1875L15.332 18.6875C15.1289 18.7656 14.9062 18.7695 14.7031 18.6992L7.51953 16.3086L1.26953 18.6914C0.980469 18.8008 0.65625 18.7617 0.402344 18.5859C0.148438 18.4102 0 18.1211 0 17.8125V4.68751C0 4.29688 0.242188 3.94923 0.605469 3.81251L7.16797 1.31251C7.37109 1.23438 7.59375 1.23048 7.79688 1.30079L14.9805 3.69141L21.2305 1.3086C21.5195 1.19923 21.8438 1.23829 22.0977 1.41407H22.0938ZM1.875 5.33204V16.4531L6.5625 14.668V3.54688L1.875 5.33204ZM14.0625 16.5117V5.36329L8.4375 3.48829V14.6367L14.0625 16.5117ZM15.9375 16.4531L20.625 14.668V3.54688L15.9375 5.33204V16.4531Z" fill="#E7B245"/>
</g>
<defs>
<clipPath id="clip0_51_220">
<rect width="22.5" height="20" fill="white"/>
</clipPath>
</defs>
</svg>
