<svg width="3" height="8" viewBox="0 0 3 8" fill="none" xmlns="http://www.w3.org/2000/svg">
<path d="M1.02083 8C0.750092 8 0.490439 7.89074 0.298995 7.69626C0.107552 7.50178 0 7.238 0 6.96296C0 6.68792 0.107552 6.42415 0.298995 6.22967C0.490439 6.03518 0.750092 5.92593 1.02083 5.92593C1.29158 5.92593 1.55123 6.03518 1.74267 6.22967C1.93411 6.42415 2.04167 6.68792 2.04167 6.96296C2.04167 7.238 1.93411 7.50178 1.74267 7.69626C1.55123 7.89074 1.29158 8 1.02083 8ZM1.02083 5.03704C0.750092 5.03704 0.490439 4.92778 0.298995 4.7333C0.107552 4.53881 0 4.27504 0 4C0 3.72496 0.107552 3.46119 0.298995 3.2667C0.490439 3.07222 0.750092 2.96296 1.02083 2.96296C1.29158 2.96296 1.55123 3.07222 1.74267 3.2667C1.93411 3.46119 2.04167 3.72496 2.04167 4C2.04167 4.27504 1.93411 4.53881 1.74267 4.7333C1.55123 4.92778 1.29158 5.03704 1.02083 5.03704ZM0 1.03704C0 0.761998 0.107552 0.498223 0.298995 0.303741C0.490439 0.109259 0.750092 0 1.02083 0C1.29158 0 1.55123 0.109259 1.74267 0.303741C1.93411 0.498223 2.04167 0.761998 2.04167 1.03704C2.04167 1.31208 1.93411 1.57585 1.74267 1.77033C1.55123 1.96482 1.29158 2.07407 1.02083 2.07407C0.750092 2.07407 0.490439 1.96482 0.298995 1.77033C0.107552 1.57585 0 1.31208 0 1.03704Z" fill="#505050"/>
</svg>
