<svg width="163" height="48" viewBox="0 0 163 48" fill="none" xmlns="http://www.w3.org/2000/svg">
<path d="M13.5017 17.669H22.6376C22.6376 17.669 22.6376 18.4704 22.6376 19.1115C22.6376 19.7526 21.1951 19.9129 21.1951 19.9129L23.439 31.9338L34.6585 32.8955L32.7351 38.3449L27.1254 44.7561L19.432 47C21.854 45.4378 28.2473 39.9477 23.7595 37.7038C22.1283 36.8882 19.9615 36.0922 20.7175 33.7614C21.1248 32.5054 22.6376 31.9338 22.6376 31.9338L20.5539 19.9129H18.6306L18.2907 31.9338C17.8099 32.8955 15.5853 34.1777 15.7456 35.6202C15.9092 37.0928 16.7073 37.223 16.7073 38.9861C16.7073 40.7491 13.1811 43.1533 7.09053 43.3136L1.16022 33.216L13.5017 31.9338L15.1045 19.9129C15.1045 19.9129 13.5017 19.7526 13.5017 19.1115C13.5017 18.4704 13.5017 17.669 13.5017 17.669Z" fill="#012E5F"/>
<path d="M21.0348 11.0976H15.1045C15.1045 11.0976 15.0538 10.0969 15.4251 9.65506C15.9547 9.02473 17.5087 9.33451 17.5087 9.33451V8.37283H18.7909V9.33451C18.7909 9.33451 20.2124 9.08233 20.7143 9.65506C21.0946 10.0891 21.0348 11.0976 21.0348 11.0976Z" fill="#012E5F"/>
<path d="M16.547 12.2195H15.1045V17.1882H16.547V12.2195Z" fill="#012E5F"/>
<path d="M19.1115 12.2195H17.0278V17.1882H19.1115V12.2195Z" fill="#012E5F"/>
<path d="M21.0349 12.2195H19.5923V17.1882H21.0349V12.2195Z" fill="#012E5F"/>
<path d="M13.8222 14.4634L2.12189 11.899L1.16022 17.1882L13.8222 14.4634Z" fill="#E7B245"/>
<path d="M21.8363 14.4634L33.5366 11.899L34.4983 17.1882L21.8363 14.4634Z" fill="#E7B245"/>
<path fill-rule="evenodd" clip-rule="evenodd" d="M0.198608 17.9896C0.198608 8.1639 8.16388 0.198608 17.9896 0.198608C27.8152 0.198608 35.7805 8.16389 35.7805 17.9896V29.8502C35.7805 39.6758 27.8152 47.6411 17.9896 47.6411C8.16388 47.6411 0.198608 39.6759 0.198608 29.8502V17.9896ZM17.9896 1.8014C9.04908 1.8014 1.8014 9.04909 1.8014 17.9896V29.8502C1.8014 38.7907 9.04908 46.0383 17.9896 46.0383C26.93 46.0383 34.1777 38.7906 34.1777 29.8502V17.9896C34.1777 9.04908 26.93 1.8014 17.9896 1.8014Z" fill="#012E5F"/>
<path d="M62.8953 22.8364C62.8953 22.7659 62.9165 22.7095 62.9587 22.6672C63.0151 22.6108 63.0786 22.5826 63.1491 22.5826H65.6023C65.6728 22.5826 65.7292 22.6108 65.7715 22.6672C65.8279 22.7095 65.8561 22.7659 65.8561 22.8364V37.1328C65.8561 37.2033 65.8279 37.2668 65.7715 37.3232C65.7292 37.3655 65.6728 37.3866 65.6023 37.3866H62.8107C62.6697 37.3866 62.5781 37.3161 62.5358 37.1751L59.9134 28.9906C59.8993 28.9483 59.8711 28.9342 59.8288 28.9483C59.8006 28.9483 59.7865 28.9695 59.7865 29.0118L59.8076 37.1328C59.8076 37.2033 59.7794 37.2668 59.723 37.3232C59.6807 37.3655 59.6243 37.3866 59.5538 37.3866H57.1006C57.0301 37.3866 56.9666 37.3655 56.9102 37.3232C56.868 37.2668 56.8468 37.2033 56.8468 37.1328V22.8364C56.8468 22.7659 56.868 22.7095 56.9102 22.6672C56.9666 22.6108 57.0301 22.5826 57.1006 22.5826H59.8711C60.012 22.5826 60.1037 22.6531 60.146 22.7941L62.7896 30.9786C62.8037 31.0209 62.8248 31.042 62.853 31.042C62.8953 31.0279 62.9165 30.9997 62.9165 30.9574L62.8953 22.8364Z" fill="#012E5F"/>
<path d="M71.7708 37.5558C70.4737 37.5558 69.4374 37.1751 68.6619 36.4138C67.8865 35.6524 67.4988 34.6373 67.4988 33.3684V26.6008C67.4988 25.3319 67.8865 24.3168 68.6619 23.5554C69.4374 22.7941 70.4737 22.4134 71.7708 22.4134C73.0679 22.4134 74.1042 22.7941 74.8796 23.5554C75.6692 24.3168 76.0639 25.3319 76.0639 26.6008V33.3684C76.0639 34.6373 75.6692 35.6524 74.8796 36.4138C74.1042 37.1751 73.0679 37.5558 71.7708 37.5558ZM71.7708 34.9968C72.1656 34.9968 72.4828 34.8629 72.7225 34.595C72.9622 34.313 73.082 33.9465 73.082 33.4953V26.4739C73.082 26.0228 72.9622 25.6632 72.7225 25.3954C72.4828 25.1134 72.1656 24.9724 71.7708 24.9724C71.376 24.9724 71.0588 25.1134 70.8191 25.3954C70.5935 25.6632 70.4807 26.0228 70.4807 26.4739V33.4953C70.4807 33.9465 70.5935 34.313 70.8191 34.595C71.0588 34.8629 71.376 34.9968 71.7708 34.9968Z" fill="#012E5F"/>
<path d="M81.513 37.5558C80.6953 37.5558 79.9762 37.3937 79.3559 37.0694C78.7355 36.7451 78.2561 36.2939 77.9178 35.7159C77.5794 35.1237 77.4102 34.447 77.4102 33.6856V33.0723C77.4102 33.0018 77.4313 32.9454 77.4736 32.9031C77.53 32.8467 77.5935 32.8185 77.664 32.8185H80.0961C80.1666 32.8185 80.223 32.8467 80.2653 32.9031C80.3216 32.9454 80.3498 33.0018 80.3498 33.0723V33.5376C80.3498 33.9746 80.4626 34.3271 80.6882 34.595C80.9138 34.8629 81.1958 34.9968 81.5342 34.9968C81.8725 34.9968 82.1545 34.8699 82.3801 34.6162C82.6057 34.3624 82.7185 34.031 82.7185 33.6222C82.7185 33.1992 82.5775 32.8397 82.2955 32.5436C82.0135 32.2334 81.4637 31.7822 80.6459 31.1901C79.941 30.6825 79.37 30.2313 78.9329 29.8366C78.4958 29.4418 78.1222 28.9554 77.812 28.3773C77.5018 27.7993 77.3467 27.1295 77.3467 26.3682C77.3467 25.1698 77.7204 24.211 78.4676 23.492C79.2149 22.7729 80.2018 22.4134 81.4284 22.4134C82.6691 22.4134 83.6631 22.787 84.4104 23.5343C85.1717 24.2815 85.5524 25.2614 85.5524 26.4739V26.9815C85.5524 27.052 85.5242 27.1155 85.4678 27.1718C85.4255 27.2141 85.3691 27.2353 85.2986 27.2353H82.8665C82.796 27.2353 82.7326 27.2141 82.6762 27.1718C82.6339 27.1155 82.6127 27.052 82.6127 26.9815V26.4105C82.6127 25.9734 82.5 25.628 82.2744 25.3742C82.0629 25.1063 81.7809 24.9724 81.4284 24.9724C81.09 24.9724 80.8151 25.0993 80.6036 25.3531C80.3921 25.5928 80.2864 25.9311 80.2864 26.3682C80.2864 26.7912 80.4203 27.1648 80.6882 27.4891C80.9561 27.8134 81.4848 28.2645 82.2744 28.8426C83.1485 29.4911 83.8041 30.0199 84.2412 30.4287C84.6924 30.8235 85.0378 31.2676 85.2775 31.7611C85.5313 32.2405 85.6581 32.8185 85.6581 33.4953C85.6581 34.736 85.2775 35.7229 84.5161 36.4561C83.7548 37.1892 82.7537 37.5558 81.513 37.5558Z" fill="#012E5F"/>
<path d="M90.9101 37.5558C90.0924 37.5558 89.3733 37.3937 88.7529 37.0694C88.1326 36.7451 87.6532 36.2939 87.3148 35.7159C86.9765 35.1237 86.8073 34.447 86.8073 33.6856V33.0723C86.8073 33.0018 86.8284 32.9454 86.8707 32.9031C86.9271 32.8467 86.9906 32.8185 87.0611 32.8185H89.4931C89.5636 32.8185 89.62 32.8467 89.6623 32.9031C89.7187 32.9454 89.7469 33.0018 89.7469 33.0723V33.5376C89.7469 33.9746 89.8597 34.3271 90.0853 34.595C90.3109 34.8629 90.5929 34.9968 90.9313 34.9968C91.2696 34.9968 91.5516 34.8699 91.7772 34.6162C92.0028 34.3624 92.1156 34.031 92.1156 33.6222C92.1156 33.1992 91.9746 32.8397 91.6926 32.5436C91.4106 32.2334 90.8608 31.7822 90.043 31.1901C89.3381 30.6825 88.767 30.2313 88.33 29.8366C87.8929 29.4418 87.5193 28.9554 87.2091 28.3773C86.8989 27.7993 86.7438 27.1295 86.7438 26.3682C86.7438 25.1698 87.1175 24.211 87.8647 23.492C88.612 22.7729 89.5989 22.4134 90.8255 22.4134C92.0662 22.4134 93.0602 22.787 93.8075 23.5343C94.5688 24.2815 94.9495 25.2614 94.9495 26.4739V26.9815C94.9495 27.052 94.9213 27.1155 94.8649 27.1718C94.8226 27.2141 94.7662 27.2353 94.6957 27.2353H92.2636C92.1931 27.2353 92.1297 27.2141 92.0733 27.1718C92.031 27.1155 92.0098 27.052 92.0098 26.9815V26.4105C92.0098 25.9734 91.897 25.628 91.6715 25.3742C91.46 25.1063 91.178 24.9724 90.8255 24.9724C90.4871 24.9724 90.2122 25.0993 90.0007 25.3531C89.7892 25.5928 89.6835 25.9311 89.6835 26.3682C89.6835 26.7912 89.8174 27.1648 90.0853 27.4891C90.3532 27.8134 90.8819 28.2645 91.6715 28.8426C92.5456 29.4911 93.2012 30.0199 93.6383 30.4287C94.0894 30.8235 94.4349 31.2676 94.6746 31.7611C94.9283 32.2405 95.0552 32.8185 95.0552 33.4953C95.0552 34.736 94.6746 35.7229 93.9132 36.4561C93.1519 37.1892 92.1508 37.5558 90.9101 37.5558Z" fill="#012E5F"/>
<path d="M102.718 37.3866C102.549 37.3866 102.457 37.3091 102.443 37.154L102.105 35.1237C102.105 35.0532 102.063 35.018 101.978 35.018H99.2921C99.2075 35.018 99.1652 35.0532 99.1652 35.1237L98.8268 37.154C98.8127 37.3091 98.721 37.3866 98.5519 37.3866H96.0775C95.8942 37.3866 95.8237 37.295 95.866 37.1117L98.9748 22.8152C99.003 22.6601 99.0947 22.5826 99.2498 22.5826H102.105C102.26 22.5826 102.352 22.6601 102.38 22.8152L105.467 37.1117L105.489 37.1963C105.489 37.3232 105.411 37.3866 105.256 37.3866H102.718ZM99.5881 32.607C99.5881 32.6775 99.6163 32.7128 99.6727 32.7128H101.576C101.647 32.7128 101.675 32.6775 101.661 32.607L100.667 26.8335C100.653 26.7912 100.631 26.77 100.603 26.77C100.575 26.77 100.554 26.7912 100.54 26.8335L99.5881 32.607Z" fill="#012E5F"/>
<path d="M111.191 37.3866C111.12 37.3866 111.057 37.3655 111 37.3232C110.958 37.2668 110.937 37.2033 110.937 37.1328V22.8364C110.937 22.7659 110.958 22.7095 111 22.6672C111.057 22.6108 111.12 22.5826 111.191 22.5826H113.665C113.736 22.5826 113.792 22.6108 113.834 22.6672C113.891 22.7095 113.919 22.7659 113.919 22.8364V37.1328C113.919 37.2033 113.891 37.2668 113.834 37.3232C113.792 37.3655 113.736 37.3866 113.665 37.3866H111.191Z" fill="#012E5F"/>
<path d="M116.065 37.3866C115.994 37.3866 115.931 37.3655 115.874 37.3232C115.832 37.2668 115.811 37.2033 115.811 37.1328V22.8364C115.811 22.7659 115.832 22.7095 115.874 22.6672C115.931 22.6108 115.994 22.5826 116.065 22.5826H118.539C118.61 22.5826 118.666 22.6108 118.708 22.6672C118.765 22.7095 118.793 22.7659 118.793 22.8364V34.7219C118.793 34.7924 118.828 34.8276 118.899 34.8276H123.34C123.41 34.8276 123.467 34.8558 123.509 34.9122C123.565 34.9545 123.594 35.0109 123.594 35.0814V37.1328C123.594 37.2033 123.565 37.2668 123.509 37.3232C123.467 37.3655 123.41 37.3866 123.34 37.3866H116.065Z" fill="#012E5F"/>
<path d="M130.124 22.8364C130.124 22.7659 130.145 22.7095 130.187 22.6672C130.244 22.6108 130.307 22.5826 130.378 22.5826H132.852C132.923 22.5826 132.979 22.6108 133.021 22.6672C133.078 22.7095 133.106 22.7659 133.106 22.8364V37.1328C133.106 37.2033 133.078 37.2668 133.021 37.3232C132.979 37.3655 132.923 37.3866 132.852 37.3866H130.378C130.307 37.3866 130.244 37.3655 130.187 37.3232C130.145 37.2668 130.124 37.2033 130.124 37.1328V31.3593C130.124 31.2888 130.089 31.2535 130.018 31.2535H127.903C127.833 31.2535 127.798 31.2888 127.798 31.3593V37.1328C127.798 37.2033 127.769 37.2668 127.713 37.3232C127.671 37.3655 127.614 37.3866 127.544 37.3866H125.069C124.999 37.3866 124.935 37.3655 124.879 37.3232C124.837 37.2668 124.816 37.2033 124.816 37.1328V22.8364C124.816 22.7659 124.837 22.7095 124.879 22.6672C124.935 22.6108 124.999 22.5826 125.069 22.5826H127.544C127.614 22.5826 127.671 22.6108 127.713 22.6672C127.769 22.7095 127.798 22.7659 127.798 22.8364V28.5888C127.798 28.6593 127.833 28.6945 127.903 28.6945H130.018C130.089 28.6945 130.124 28.6593 130.124 28.5888V22.8364Z" fill="#012E5F"/>
<path d="M142.676 24.8878C142.676 24.9583 142.648 25.0217 142.592 25.0781C142.55 25.1204 142.493 25.1416 142.423 25.1416H138.003C137.932 25.1416 137.897 25.1768 137.897 25.2473V28.5888C137.897 28.6593 137.932 28.6945 138.003 28.6945H140.54C140.611 28.6945 140.667 28.7227 140.71 28.7791C140.766 28.8214 140.794 28.8778 140.794 28.9483V30.9997C140.794 31.0702 140.766 31.1337 140.71 31.1901C140.667 31.2324 140.611 31.2535 140.54 31.2535H138.003C137.932 31.2535 137.897 31.2888 137.897 31.3593V34.7219C137.897 34.7924 137.932 34.8276 138.003 34.8276H142.423C142.493 34.8276 142.55 34.8558 142.592 34.9122C142.648 34.9545 142.676 35.0109 142.676 35.0814V37.1328C142.676 37.2033 142.648 37.2668 142.592 37.3232C142.55 37.3655 142.493 37.3866 142.423 37.3866H135.169C135.098 37.3866 135.035 37.3655 134.978 37.3232C134.936 37.2668 134.915 37.2033 134.915 37.1328V22.8364C134.915 22.7659 134.936 22.7095 134.978 22.6672C135.035 22.6108 135.098 22.5826 135.169 22.5826H142.423C142.493 22.5826 142.55 22.6108 142.592 22.6672C142.648 22.7095 142.676 22.7659 142.676 22.8364V24.8878ZM137.664 21.2714C137.566 21.2714 137.495 21.2432 137.453 21.1868C137.41 21.1304 137.417 21.0599 137.474 20.9753L138.722 18.8181C138.778 18.7054 138.884 18.649 139.039 18.649H141.006C141.147 18.649 141.217 18.6983 141.217 18.797C141.217 18.8393 141.196 18.8957 141.154 18.9662L139.525 21.1233C139.441 21.222 139.342 21.2714 139.229 21.2714H137.664Z" fill="#012E5F"/>
<path d="M148.333 37.5558C147.064 37.5558 146.042 37.161 145.267 36.3715C144.505 35.5678 144.125 34.5034 144.125 33.1781V22.8364C144.125 22.7659 144.146 22.7095 144.188 22.6672C144.244 22.6108 144.308 22.5826 144.378 22.5826H146.853C146.923 22.5826 146.98 22.6108 147.022 22.6672C147.078 22.7095 147.107 22.7659 147.107 22.8364V33.4741C147.107 33.9253 147.219 34.2919 147.445 34.5739C147.671 34.8558 147.967 34.9968 148.333 34.9968C148.7 34.9968 148.989 34.8558 149.2 34.5739C149.426 34.2919 149.539 33.9253 149.539 33.4741V22.8364C149.539 22.7659 149.56 22.7095 149.602 22.6672C149.659 22.6108 149.722 22.5826 149.792 22.5826H152.267C152.337 22.5826 152.394 22.6108 152.436 22.6672C152.492 22.7095 152.521 22.7659 152.521 22.8364V33.1781C152.521 34.5034 152.133 35.5678 151.357 36.3715C150.596 37.161 149.588 37.5558 148.333 37.5558Z" fill="#012E5F"/>
<path d="M158.115 37.5558C157.297 37.5558 156.578 37.3937 155.958 37.0694C155.337 36.7451 154.858 36.2939 154.519 35.7159C154.181 35.1237 154.012 34.447 154.012 33.6856V33.0723C154.012 33.0018 154.033 32.9454 154.075 32.9031C154.132 32.8467 154.195 32.8185 154.266 32.8185H156.698C156.768 32.8185 156.825 32.8467 156.867 32.9031C156.923 32.9454 156.952 33.0018 156.952 33.0723V33.5376C156.952 33.9746 157.064 34.3271 157.29 34.595C157.516 34.8629 157.798 34.9968 158.136 34.9968C158.474 34.9968 158.756 34.8699 158.982 34.6162C159.207 34.3624 159.32 34.031 159.32 33.6222C159.32 33.1992 159.179 32.8397 158.897 32.5436C158.615 32.2334 158.065 31.7822 157.248 31.1901C156.543 30.6825 155.972 30.2313 155.535 29.8366C155.098 29.4418 154.724 28.9554 154.414 28.3773C154.104 27.7993 153.948 27.1295 153.948 26.3682C153.948 25.1698 154.322 24.211 155.069 23.492C155.817 22.7729 156.804 22.4134 158.03 22.4134C159.271 22.4134 160.265 22.787 161.012 23.5343C161.773 24.2815 162.154 25.2614 162.154 26.4739V26.9815C162.154 27.052 162.126 27.1155 162.07 27.1718C162.027 27.2141 161.971 27.2353 161.9 27.2353H159.468C159.398 27.2353 159.334 27.2141 159.278 27.1718C159.236 27.1155 159.214 27.052 159.214 26.9815V26.4105C159.214 25.9734 159.102 25.628 158.876 25.3742C158.665 25.1063 158.383 24.9724 158.03 24.9724C157.692 24.9724 157.417 25.0993 157.205 25.3531C156.994 25.5928 156.888 25.9311 156.888 26.3682C156.888 26.7912 157.022 27.1648 157.29 27.4891C157.558 27.8134 158.087 28.2645 158.876 28.8426C159.75 29.4911 160.406 30.0199 160.843 30.4287C161.294 30.8235 161.64 31.2676 161.879 31.7611C162.133 32.2405 162.26 32.8185 162.26 33.4953C162.26 34.736 161.879 35.7229 161.118 36.4561C160.357 37.1892 159.355 37.5558 158.115 37.5558Z" fill="#012E5F"/>
<path d="M56.7269 12.0562L76.8315 13.1732L56.7269 13.8433V12.0562Z" fill="#E7B245"/>
<path d="M162.144 13.88L142.04 12.7631L162.144 12.0929L162.144 13.88Z" fill="#E7B245"/>
<path d="M80.1086 15.5012V10.3945H81.057V15.5012H80.1086Z" fill="#012E5F"/>
<path d="M84.9551 15.5012V10.3945H85.7357L88.9382 14.3266H88.5516V10.3945H89.4927V15.5012H88.7121L85.5095 11.5691H85.8961V15.5012H84.9551Z" fill="#012E5F"/>
<path d="M94.9609 15.5741C94.5621 15.5741 94.1803 15.5182 93.8156 15.4063C93.4508 15.2896 93.1614 15.1413 92.9474 14.9613L93.2757 14.2245C93.48 14.385 93.7329 14.5187 94.0344 14.6257C94.3359 14.7327 94.6448 14.7862 94.9609 14.7862C95.2284 14.7862 95.4448 14.757 95.6102 14.6987C95.7755 14.6403 95.8971 14.5625 95.9749 14.4652C96.0527 14.3631 96.0916 14.2488 96.0916 14.1224C96.0916 13.9667 96.0357 13.8427 95.9239 13.7503C95.812 13.653 95.6661 13.5777 95.4861 13.5242C95.3111 13.4658 95.1141 13.4123 94.8952 13.3637C94.6812 13.315 94.4648 13.2591 94.246 13.1959C94.032 13.1278 93.835 13.0427 93.6551 12.9406C93.48 12.8336 93.3365 12.6925 93.2246 12.5174C93.1128 12.3424 93.0569 12.1186 93.0569 11.8463C93.0569 11.5691 93.1298 11.3162 93.2757 11.0876C93.4265 10.8541 93.6526 10.6693 93.9542 10.5332C94.2606 10.3921 94.6472 10.3216 95.1141 10.3216C95.4205 10.3216 95.7245 10.3605 96.026 10.4383C96.3275 10.5161 96.5901 10.628 96.8139 10.7739L96.5148 11.5107C96.2862 11.3745 96.0503 11.2748 95.8071 11.2116C95.564 11.1435 95.3305 11.1095 95.1068 11.1095C94.8442 11.1095 94.6302 11.1411 94.4648 11.2043C94.3043 11.2675 94.1852 11.3502 94.1074 11.4523C94.0344 11.5545 93.9979 11.6712 93.9979 11.8025C93.9979 11.9581 94.0514 12.0846 94.1584 12.1819C94.2703 12.2743 94.4138 12.3472 94.5888 12.4007C94.7688 12.4542 94.9682 12.5077 95.187 12.5612C95.4059 12.6098 95.6223 12.6658 95.8363 12.729C96.0552 12.7922 96.2521 12.8749 96.4272 12.977C96.6072 13.0792 96.7506 13.2178 96.8576 13.3929C96.9695 13.5679 97.0254 13.7892 97.0254 14.0567C97.0254 14.3291 96.95 14.582 96.7993 14.8154C96.6534 15.044 96.4272 15.2288 96.1208 15.3698C95.8144 15.506 95.4278 15.5741 94.9609 15.5741Z" fill="#012E5F"/>
<path d="M101.447 15.5012V11.197H99.7548V10.3945H104.088V11.197H102.396V15.5012H101.447Z" fill="#012E5F"/>
<path d="M107.317 15.5012V10.3945H108.265V15.5012H107.317Z" fill="#012E5F"/>
<path d="M113.199 15.5012V11.197H111.507V10.3945H115.84V11.197H114.147V15.5012H113.199Z" fill="#012E5F"/>
<path d="M121.172 15.5741C120.471 15.5741 119.922 15.3771 119.523 14.9832C119.129 14.5893 118.932 14.0202 118.932 13.2761V10.3945H119.88V13.2397C119.88 13.7649 119.992 14.1467 120.216 14.385C120.445 14.6233 120.766 14.7425 121.179 14.7425C121.592 14.7425 121.911 14.6233 122.135 14.385C122.358 14.1467 122.47 13.7649 122.47 13.2397V10.3945H123.404V13.2761C123.404 14.0202 123.205 14.5893 122.806 14.9832C122.412 15.3771 121.867 15.5741 121.172 15.5741Z" fill="#012E5F"/>
<path d="M128.192 15.5012V11.197H126.5V10.3945H130.833V11.197H129.141V15.5012H128.192Z" fill="#012E5F"/>
<path d="M136.383 15.5741C135.984 15.5741 135.617 15.5084 135.282 15.3771C134.946 15.2458 134.654 15.0634 134.406 14.83C134.158 14.5917 133.966 14.3145 133.83 13.9984C133.694 13.6774 133.626 13.3272 133.626 12.9479C133.626 12.5685 133.694 12.2208 133.83 11.9046C133.966 11.5837 134.158 11.3064 134.406 11.073C134.654 10.8347 134.946 10.6499 135.282 10.5186C135.617 10.3873 135.982 10.3216 136.376 10.3216C136.775 10.3216 137.14 10.3873 137.47 10.5186C137.806 10.6499 138.098 10.8347 138.346 11.073C138.594 11.3064 138.786 11.5837 138.922 11.9046C139.058 12.2208 139.126 12.5685 139.126 12.9479C139.126 13.3272 139.058 13.6774 138.922 13.9984C138.786 14.3193 138.594 14.5966 138.346 14.83C138.098 15.0634 137.806 15.2458 137.47 15.3771C137.14 15.5084 136.777 15.5741 136.383 15.5741ZM136.376 14.7425C136.634 14.7425 136.872 14.6987 137.091 14.6111C137.31 14.5236 137.499 14.3996 137.66 14.2391C137.82 14.0737 137.944 13.8841 138.032 13.6701C138.124 13.4512 138.171 13.2105 138.171 12.9479C138.171 12.6852 138.124 12.4469 138.032 12.2329C137.944 12.0141 137.82 11.8244 137.66 11.6639C137.499 11.4985 137.31 11.3721 137.091 11.2846C136.872 11.197 136.634 11.1532 136.376 11.1532C136.118 11.1532 135.88 11.197 135.661 11.2846C135.447 11.3721 135.257 11.4985 135.092 11.6639C134.932 11.8244 134.805 12.0141 134.713 12.2329C134.625 12.4469 134.581 12.6852 134.581 12.9479C134.581 13.2056 134.625 13.4439 134.713 13.6628C134.805 13.8816 134.932 14.0737 135.092 14.2391C135.253 14.3996 135.442 14.5236 135.661 14.6111C135.88 14.6987 136.118 14.7425 136.376 14.7425Z" fill="#012E5F"/>
</svg>
